# xmcd CD database file
#
# Track frame offsets:
#	150
#	13452
#	29085
#	47569
#	60870
#	72796
#	86286
#	99758
#	116858
#	134243
#	155640
#	171235
#	187146
#	202022
#	220849
#
# Disc length: 3120 seconds
#
# Revision: 0
# Processed by: cddbd v1.5.2PL0 Copyright (c) Steve Scherf et al.
# Submitted via: CDex 1.70beta2
#
DISCID=de0c2e0f
DTITLE=Mariama - The Easy Way Out
DYEAR=2012
DGENRE=Jazz
TTITLE0=The easy way out
TTITLE1=No way
TTITLE2=Change the seasons
TTITLE3=In the park
TTITLE4=There is a place
TTITLE5=Life goes on
TTITLE6=Fly away
TTITLE7=In the wind
TTITLE8=Sometimes
TTITLE9=Easy
TTITLE10=September melody
TTITLE11=Mathilde
TTITLE12=J'ai deux amours
TTITLE13=Underground
TTITLE14=Easy way out (Version française)
EXTD=YEAR: 2012
EXTT0=
EXTT1=
EXTT2=
EXTT3=
EXTT4=
EXTT5=
EXTT6=
EXTT7=
EXTT8=
EXTT9=
EXTT10=
EXTT11=
EXTT12=
EXTT13=
EXTT14=
PLAYORDER=
